<?xml version="1.0" encoding="utf-8"?>
<!-- Generator: Adobe Illustrator 16.0.0, SVG Export Plug-In . SVG Version: 6.00 Build 0)  -->
<!DOCTYPE svg PUBLIC "-//W3C//DTD SVG 1.1//EN" "http://www.w3.org/Graphics/SVG/1.1/DTD/svg11.dtd">
<svg version="1.1" id="Layer_1" xmlns="http://www.w3.org/2000/svg" xmlns:xlink="http://www.w3.org/1999/xlink" x="0px" y="0px"
	 width="155.029px" height="49.855px" viewBox="0 0 155.029 49.855" enable-background="new 0 0 155.029 49.855"
	 xml:space="preserve">
<g>
	<g>
		<path fill="#FFFFFF" d="M87.808,11.734c-1.018,0-1.565-0.333-2.31-1.214l-2.603,1.408c0.959,1.586,2.681,2.368,4.932,2.368
			c3.19,0,5.499-1.663,5.499-4.696V0.755h-3.071v0.646c-0.705-0.607-1.684-0.94-2.955-0.94c-2.564,0-4.736,2.017-4.736,4.736
			c0,2.778,2.172,4.814,4.736,4.814c1.271,0,2.25-0.333,2.955-0.939v0.273C90.255,10.892,89.236,11.734,87.808,11.734 M87.965,7.448
			c-1.37,0-2.35-0.939-2.35-2.251s0.979-2.231,2.35-2.231c1.253,0,2.29,0.92,2.29,2.231S89.218,7.448,87.965,7.448"/>
		<path fill="#FFFFFF" d="M102.817,10.579h3.131V0.755h-3.131v0.783c-0.763-0.685-1.781-1.077-3.053-1.077
			c-2.604,0-4.794,2.114-4.794,5.206c0,3.111,2.19,5.206,4.794,5.206c1.271,0,2.29-0.392,3.053-1.077V10.579z M100.41,8.211
			c-1.37,0-2.368-1.018-2.368-2.544c0-1.507,0.998-2.544,2.368-2.544c1.272,0,2.407,1.037,2.407,2.544
			C102.817,7.193,101.683,8.211,100.41,8.211"/>
		<path fill="#FFFFFF" d="M114.893,5.1v5.479h3.131V5.765c0-1.644,0.763-2.485,1.918-2.485c0.92,0,1.644,0.705,1.644,1.82v5.479
			h3.111V4.435c0-2.388-1.663-3.973-3.757-3.973c-1.526,0-2.701,0.646-3.483,1.663c-0.666-1.076-1.84-1.663-3.21-1.663
			c-1.271,0-2.23,0.449-2.896,1.193V0.756h-3.132v9.823h3.132V5.765c0-1.644,0.742-2.485,1.879-2.485
			C114.168,3.279,114.893,3.984,114.893,5.1"/>
		<path fill="#FFFFFF" d="M136.242,7.801l-2.779-0.568c-0.528,0.959-1.369,1.135-2.094,1.135c-1.056,0-1.859-0.724-2.113-1.897
			h7.202V5.668c-0.059-3.21-2.29-5.206-5.069-5.206c-2.856,0-5.206,2.113-5.206,5.206c0,3.11,2.35,5.204,5.187,5.204
			C133.62,10.872,135.401,9.875,136.242,7.801 M131.389,3.006c0.9,0,1.684,0.488,1.978,1.546h-4.051
			C129.608,3.554,130.508,3.006,131.389,3.006"/>
		<path fill="#FFFFFF" d="M141.213,2.634V0.755h-3.131v9.824h3.131V7.507c0-2.544,1.194-3.679,3.387-3.679h0.566l0.137-3.131
			c-0.234-0.06-0.43-0.079-0.703-0.079C142.994,0.618,141.918,1.46,141.213,2.634"/>
		<path fill="#FFFFFF" d="M152.31,4.61L150,4.141c-0.626-0.137-0.744-0.411-0.744-0.686c0-0.352,0.274-0.763,1.116-0.763
			c0.958,0,1.546,0.548,1.644,1.155l2.857-0.568c-0.392-1.702-2.016-2.817-4.462-2.817c-2.486,0-4.227,1.311-4.227,3.326
			c0,1.547,1.037,2.525,2.856,2.857l1.996,0.392c0.724,0.138,0.979,0.392,0.979,0.725c0,0.43-0.45,0.783-1.272,0.783
			c-0.841,0-1.604-0.314-1.741-1.155l-3.053,0.626c0.332,2.016,2.309,2.856,4.618,2.856c2.583,0,4.462-1.135,4.462-3.307
			C155.029,6.117,154.168,5.002,152.31,4.61"/>
		<path fill="#FFFFFF" d="M95.93,17.31c-1.526,0-2.701,0.646-3.483,1.663c-0.666-1.076-1.84-1.663-3.21-1.663
			c-1.272,0-2.231,0.449-2.896,1.193v-0.9h-3.132v9.824h3.132v-4.814c0-1.644,0.742-2.485,1.878-2.485
			c0.939,0,1.664,0.705,1.664,1.82v5.479h3.131v-4.814c0-1.644,0.763-2.485,1.918-2.485c0.92,0,1.644,0.705,1.644,1.82v5.479h3.111
			v-6.145C99.687,18.895,98.023,17.31,95.93,17.31"/>
		<path fill="#FFFFFF" d="M108.435,22.162c0,1.898-0.802,2.74-2.035,2.74c-0.998,0-1.683-0.783-1.683-1.938v-5.362h-3.112v6.028
			c0,2.466,1.525,4.09,3.815,4.09c1.233,0,2.271-0.45,3.015-1.233v0.939h3.131v-9.824h-3.131V22.162z"/>
		<path fill="#FFFFFF" d="M119.472,21.458l-2.309-0.47c-0.626-0.138-0.744-0.411-0.744-0.686c0-0.352,0.273-0.763,1.115-0.763
			c0.959,0,1.547,0.548,1.644,1.155l2.858-0.568c-0.393-1.702-2.017-2.818-4.463-2.818c-2.485,0-4.227,1.312-4.227,3.327
			c0,1.546,1.037,2.525,2.857,2.857l1.995,0.392c0.725,0.137,0.979,0.392,0.979,0.725c0,0.43-0.45,0.782-1.272,0.782
			c-0.841,0-1.604-0.313-1.74-1.154l-3.054,0.626c0.333,2.016,2.31,2.856,4.618,2.856c2.583,0,4.462-1.135,4.462-3.307
			C122.191,22.965,121.331,21.849,119.472,21.458"/>
		<rect x="124.012" y="17.603" fill="#FFFFFF" width="3.131" height="9.823"/>
		<path fill="#FFFFFF" d="M125.577,12.926c-1.057,0-1.8,0.821-1.8,1.78c0,0.998,0.743,1.742,1.8,1.742
			c1.058,0,1.82-0.744,1.82-1.742C127.397,13.747,126.635,12.926,125.577,12.926"/>
		<path fill="#FFFFFF" d="M134.286,20.049c0.998,0,1.8,0.548,2.073,1.742l2.937-0.705c-0.548-2.309-2.622-3.777-5.01-3.777
			c-2.936,0-5.362,2.114-5.362,5.206c0,3.111,2.427,5.205,5.362,5.205c2.445,0,4.521-1.507,5.01-3.835l-2.877-0.627
			c-0.333,1.194-1.135,1.723-2.133,1.723c-1.409,0-2.349-1.018-2.349-2.466C131.938,21.086,132.877,20.049,134.286,20.049"/>
	</g>
	<path fill="#FFFFFF" d="M70.112,5.434C68.255,1.931,64.956,0,60.821,0c-4.134,0-7.434,1.931-9.291,5.434
		c-1.306,2.464-1.465,4.87-1.479,5.137l-0.003,7.366l0.007,0.098c0.075,0.984-0.102,3.507-1.117,4.603
		c-0.254,0.273-0.662,0.589-1.57,0.589c-0.91,0-1.323-0.315-1.581-0.589c-1.104-1.176-1.205-3.801-1.154-4.617l0.006-0.09v-7.227
		l-0.003-0.133c-0.014-0.267-0.173-2.673-1.479-5.137C41.3,1.931,38,0,33.866,0c-0.632,0-1.235,0.061-1.825,0.149
		c-3.188,0.341-5.775,1.926-7.462,4.552c-2.587-2.849-6.308-4.652-10.449-4.652C6.339,0.049,0,6.389,0,14.18
		s6.339,14.13,14.13,14.13c3.399,0,6.522-1.208,8.963-3.216v7.251c-1.229-0.606-2.606-0.956-4.066-0.956
		c-5.091,0-9.232,4.142-9.232,9.232c0,5.092,4.142,9.234,9.232,9.234c4.849,0,8.827-3.758,9.197-8.514h0.046V10.795
		c0.023-0.252,0.179-1.614,0.879-2.937c0.784-1.479,1.922-2.31,3.516-2.577c0.229-0.02,0.465-0.035,0.712-0.035V5.201
		c0.162-0.01,0.319-0.023,0.49-0.023c2.199,0,3.679,0.813,4.652,2.561c0.749,1.346,0.917,2.776,0.944,3.064v6.957
		c-0.05,0.895-0.162,5.511,2.532,8.4c1.367,1.466,3.225,2.241,5.373,2.241s4.006-0.777,5.367-2.246
		c2.676-2.886,2.545-7.488,2.49-8.403v-6.949c0.026-0.288,0.194-1.719,0.944-3.064c0.973-1.747,2.452-2.561,4.651-2.561
		c2.2,0,3.679,0.813,4.652,2.561c0.75,1.346,0.917,2.776,0.944,3.064v16.829h5.177V10.703l-0.004-0.133
		C71.578,10.304,71.419,7.897,70.112,5.434 M14.13,23.133c-4.938,0-8.953-4.017-8.953-8.953c0-4.938,4.016-8.953,8.953-8.953
		c4.937,0,8.954,4.016,8.954,8.953C23.084,19.116,19.066,23.133,14.13,23.133 M19.026,44.679c-2.236,0-4.057-1.82-4.057-4.058
		c0-2.236,1.82-4.056,4.057-4.056c2.237,0,4.058,1.819,4.058,4.056C23.084,42.858,21.264,44.679,19.026,44.679"/>
</g>
</svg>
